<?xml version="1.0" standalone="no"?>
<!DOCTYPE svg PUBLIC "-//W3C//DTD SVG 20010904//EN"
 "http://www.w3.org/TR/2001/REC-SVG-20010904/DTD/svg10.dtd">
<svg version="1.0" xmlns="http://www.w3.org/2000/svg"
 width="3rem" height="3rem" viewBox="0 0 351.000000 401.000000"
 preserveAspectRatio="xMidYMid meet">
<metadata>
Created by potrace 1.10, written by Peter Selinger 2001-2011
</metadata>
<g transform="translate(0.000000,401.000000) scale(0.100000,-0.100000)"
fill="#00baff" stroke="none">
<path d="M1695 3933 c-59 -35 -448 -260 -615 -356 -47 -26 -92 -52 -100 -57
-19 -12 -374 -217 -420 -243 -110 -61 -441 -253 -472 -273 l-38 -24 0 -983 0
-982 40 -23 c22 -13 46 -20 52 -16 6 4 8 3 5 -3 -6 -10 62 -52 363 -223 36
-20 114 -66 174 -101 l109 -63 36 20 c58 33 244 140 406 234 83 48 269 156
415 240 146 84 335 193 420 243 85 49 160 90 167 90 14 0 443 -245 443 -253 0
-3 -30 -23 -67 -43 -78 -43 -82 -45 -378 -217 -121 -70 -312 -180 -425 -245
-113 -65 -263 -152 -335 -193 -71 -42 -151 -87 -177 -101 -26 -14 -47 -30 -45
-35 3 -8 496 -295 508 -296 4 0 74 40 419 240 36 21 126 73 200 115 74 43 187
108 250 145 63 37 278 161 478 276 l362 208 0 986 0 985 -97 55 c-53 30 -119
69 -148 85 -29 17 -102 58 -161 92 l-109 62 -3 -829 c-1 -457 -4 -830 -7 -830
-2 0 -54 29 -116 65 -61 36 -113 65 -115 65 -1 0 -38 21 -81 48 -43 26 -90 53
-105 59 l-28 13 0 705 c0 388 -2 705 -5 705 -2 0 -37 -20 -77 -43 -40 -24
-154 -90 -253 -147 -99 -56 -191 -110 -205 -119 -14 -8 -39 -23 -56 -33 -18
-9 -193 -110 -390 -224 -198 -114 -372 -215 -389 -224 -16 -10 -47 -27 -67
-40 l-38 -22 0 -299 0 -300 48 28 c26 15 64 38 85 50 21 13 53 32 70 42 18 10
145 83 282 162 138 78 300 171 360 206 l110 63 3 -252 c2 -193 -1 -255 -10
-264 -7 -6 -125 -76 -263 -154 -250 -143 -588 -338 -784 -453 -57 -33 -111
-61 -120 -61 -9 -1 -64 28 -124 63 l-107 63 0 682 0 682 108 61 c59 33 175
100 257 148 83 49 179 105 215 125 69 39 484 278 790 455 102 59 218 126 257
149 40 22 73 43 73 46 0 7 -16 17 -240 145 -107 62 -211 122 -230 133 -19 12
-37 22 -40 22 -3 -1 -32 -17 -65 -37z"/>
</g>
</svg>
